<svg width="30" height="24" viewBox="0 0 20 18" fill="none" xmlns="http://www.w3.org/2000/svg">
<rect x="1" y="1" width="18" height="16" fill="white"/>
<path d="M16 1.5H15.5V2V4V4.5H16H18H18.5V4V2V1.5H18H16ZM0.5 17.007V0.995042C0.501288 0.864253 0.553778 0.739153 0.646244 0.646593C0.738661 0.554083 0.863624 0.501474 0.994335 0.5H19.008C19.2792 0.5 19.5 0.720486 19.5 0.993V17.0049C19.4987 17.1357 19.4462 17.2608 19.3538 17.3534C19.2613 17.4459 19.1363 17.4985 19.0056 17.5H0.992504C0.861839 17.4999 0.736569 17.4479 0.644221 17.3554C0.551872 17.263 0.5 17.1377 0.5 17.007ZM10 11.5C9.33696 11.5 8.70107 11.2366 8.23223 10.7678C7.76339 10.2989 7.5 9.66304 7.5 9C7.5 8.33696 7.76339 7.70107 8.23223 7.23223C8.70107 6.76339 9.33696 6.5 10 6.5C10.663 6.5 11.2989 6.76339 11.7678 7.23223C12.2366 7.70107 12.5 8.33696 12.5 9C12.5 9.66304 12.2366 10.2989 11.7678 10.7678C11.2989 11.2366 10.663 11.5 10 11.5ZM10 14.5C11.4587 14.5 12.8576 13.9205 13.8891 12.8891C14.9205 11.8576 15.5 10.4587 15.5 9C15.5 7.54131 14.9205 6.14236 13.8891 5.11091C12.8576 4.07946 11.4587 3.5 10 3.5C8.54131 3.5 7.14236 4.07946 6.11091 5.11091C5.07946 6.14236 4.5 7.54131 4.5 9C4.5 10.4587 5.07946 11.8576 6.11091 12.8891C7.14236 13.9205 8.54131 14.5 10 14.5Z" fill="url(#paint0_linear_245_4)" stroke="black"/>
<defs>
<linearGradient id="paint0_linear_245_4" x1="-3.5" y1="9" x2="22.5" y2="9" gradientUnits="userSpaceOnUse">
<stop stop-color="#EA6943"/>
<stop offset="1" stop-color="#F1A35A"/>
</linearGradient>
</defs>
</svg>
